<?xml version="1.0" encoding="iso-8859-1"?>
<!-- Generator: Adobe Illustrator 18.0.0, SVG Export Plug-In . SVG Version: 6.00 Build 0)  -->
<!DOCTYPE svg PUBLIC "-//W3C//DTD SVG 1.1//EN" "http://www.w3.org/Graphics/SVG/1.1/DTD/svg11.dtd">
<svg version="1.1" id="Capa_1" xmlns="http://www.w3.org/2000/svg" xmlns:xlink="http://www.w3.org/1999/xlink" x="0px" y="0px"
	 viewBox="0 0 417.885 417.885" style="enable-background:new 0 0 417.885 417.885;" xml:space="preserve">
<path style="stroke:#000000;stroke-width:0;stroke-linecap:round;stroke-linejoin:round;" d="M414.986,147.236
	c-0.994-2.892-4.515-5.142-7.454-5.142c-12.728,0-25.456,0-38.183,0c-2.451,0-5.3,1.566-6.758,3.762
	c-8.031-19.086-17.269-38.732-26.146-52.353c-1.597-2.451-4.003-4.265-6.8-5.125c-1.617-0.497-40.534-12.189-120.704-12.189
	c-80.168,0-119.084,11.692-120.701,12.189c-2.796,0.86-5.203,2.674-6.8,5.126c-8.877,13.623-18.115,33.269-26.146,52.353
	c-1.457-2.196-4.307-3.763-6.758-3.763c-12.728,0-25.455,0-38.183,0c-2.939,0-6.46,2.25-7.455,5.142
	c-3.866,11.258-3.864,17.704,0.001,28.963c0.994,2.892,4.515,5.142,7.454,5.142c6.692,0,13.383,0,20.075,0
	c-9.345,9.35-15.142,22.246-15.142,36.478c0,0.665,0.045,1.329,0.134,1.989l1.208,8.878c0.402,2.958,1.674,5.602,3.522,7.713v20.187
	h-1.166c-2.761,0-5,2.239-5,5v59.819c0,11.189,9.103,20.291,20.291,20.291h40.573c11.188,0,20.291-9.103,20.291-20.291v-25.709
	h229.689v25.709c0,11.189,9.103,20.291,20.291,20.291h40.573c11.189,0,20.291-9.103,20.291-20.291v-59.819c0-2.761-2.239-5-5-5
	h-1.167v-18.224c2.973-2.299,5.066-5.709,5.606-9.677l1.207-8.878c0.09-0.659,0.134-1.324,0.134-1.989
	c0-14.232-5.797-27.128-15.142-36.478c5.303,0,10.605,0,15.908,0c2.939,0,6.46-2.25,7.454-5.142
	C418.853,164.94,418.851,158.494,414.986,147.236z M99.886,111.177c11.789-2.815,47.803-9.975,109.056-9.975
	c61.277,0,97.297,7.165,109.058,9.974c8.35,13.875,17.125,33.463,24.604,51.831c-19.639-3.19-58.322-6.829-132.619-6.829
	c-78.96,0-117.08,4.171-134.996,7.544C82.528,145.154,91.423,125.24,99.886,111.177z M30.659,284.529v-13h35.5l3.749,13H30.659z
	 M30.151,256.586V232.01l68.991,4.442l6.732,20.134H30.151z M294.787,282.517H125.182l-5.197-16.892h180L294.787,282.517z
	 M303.551,256.586H116.418l-5.061-15.135h197.254L303.551,256.586z M108.277,231.967l-5.167-16.793h213.75l-5.167,16.793H108.277z
	 M389.309,284.529h-39.249l3.749-13h35.499V284.529z M389.818,256.586h-75.723l6.732-20.134l68.991-4.442V256.586z"/>
<g>
</g>
<g>
</g>
<g>
</g>
<g>
</g>
<g>
</g>
<g>
</g>
<g>
</g>
<g>
</g>
<g>
</g>
<g>
</g>
<g>
</g>
<g>
</g>
<g>
</g>
<g>
</g>
<g>
</g>
</svg>
