<?xml version="1.0" encoding="utf-8"?>
<!-- Uploaded to SVGRepo https://www.svgrepo.com -->
<svg version="1.1" id="Layer_1" xmlns="http://www.w3.org/2000/svg" xmlns:xlink="http://www.w3.org/1999/xlink" x="0px" y="0px"
	 viewBox="0 0 128 128" style="enable-background:new 0 0 128 128;" xml:space="preserve" >
<g>
	<circle cx="35.6" cy="19.1" r="8.9"/>
	<path d="M24.8,42.3h1.9l-4.6,17.2h27.6l-5-17.2h2l2.6,8.4c1.3,3.6,4.4,4.4,6.8,1.3l9.6-11.6c1.3-1.6,1-3.3,0.1-4.5H71V18.3h-8v16.4
		c-0.9,0-1.9,0.4-2.7,1.3l-5.6,6.8c0,0.1-1.1-3.7-1.1-3.7c-1.3-4.5-5.6-9-12.1-9H29.3c-5.7,0-10.3,5-11.2,8.2l-5.9,21.3H20
		L24.8,42.3z"/>
	<circle cx="97.9" cy="19.2" r="8.9"/>
	<path d="M120.8,61.6h-5.1V36.1c0-3.5-3.1-6.2-7.6-6.2H87.1c-4.2,0-5.2,1.3-6.3,2.5L63.5,53.3c-3.5,4.4,2.7,9.5,6.3,5.4l16.8-19.8
		v22.7H7v10.1h79.5v40.5c0,7.4,10.3,7.6,10.3,0.2V71.7h2.1v40.5c0,7.3,10.3,7.4,10.3-0.1l0-40.4h11.7V61.6z"/>
</g>
</svg>
