<?xml version="1.0" encoding="iso-8859-1"?>
<!-- Generator: Adobe Illustrator 19.0.0, SVG Export Plug-In . SVG Version: 6.00 Build 0)  -->
<svg version="1.1" id="Capa_1" xmlns="http://www.w3.org/2000/svg" xmlns:xlink="http://www.w3.org/1999/xlink" x="0px" y="0px"
	 viewBox="0 0 485 485" style="enable-background:new 0 0 485 485;" xml:space="preserve">
<g>
	<path d="M165.743,140.096v14.742h28.575v12.74h-28.575v23.479h-16.199v-63.702h47.231v12.74H165.743z"/>
	<path d="M271.485,159.115c0,18.564-14.742,32.67-34.49,32.67c-19.657,0-34.399-14.015-34.399-32.67
		c0-18.564,14.743-32.306,34.399-32.306C256.743,126.809,271.485,140.642,271.485,159.115z M219.159,159.206
		c0,10.738,8.281,19.02,18.019,19.02c9.828,0,17.654-8.281,17.654-19.02s-7.826-18.838-17.654-18.838
		C227.349,140.368,219.159,148.468,219.159,159.206z"/>
	<path d="M311.251,173.13h-0.455H298.51v17.928h-16.198v-63.702h28.484c16.835,0,26.481,8.008,26.481,22.204
		c0,9.737-4.095,16.745-11.557,20.476l13.377,21.022h-18.383L311.251,173.13z M310.796,160.39c7.007,0,11.103-3.55,11.103-10.284
		c0-6.643-4.096-10.01-11.103-10.01H298.51v20.294H310.796z"/>
	<path d="M147.226,254.13h-0.455h-12.286v17.928h-16.199v-63.702h28.484c16.835,0,26.482,8.008,26.482,22.204
		c0,9.737-4.095,16.745-11.558,20.476l13.377,21.022h-18.383L147.226,254.13z M146.771,241.39c7.007,0,11.102-3.55,11.102-10.284
		c0-6.643-4.095-10.01-11.102-10.01h-12.286v20.294H146.771z"/>
	<path d="M202.644,221.096v12.649h30.395v12.74h-30.395v12.832h34.672v12.74h-50.871v-63.702h49.87v12.74H202.644z"/>
	<path d="M294.555,272.058l-29.304-39.223v39.223h-15.197v-63.702h14.288l29.394,39.313v-39.313h15.106v63.702H294.555z"/>
	<path d="M353.34,221.368v50.689h-16.199v-50.689h-19.02v-13.104h54.42v13.104H353.34z"/>
	<path d="M485,60H295.969V0H189.031v60H0v278.879h189.031V485h106.938V338.879H485V60z M219.031,30h46.938v30h-46.938V30z
		 M265.969,455h-46.938V338.879h46.938V455z M455,308.879H30V90h425V308.879z"/>
</g>
<g>
</g>
<g>
</g>
<g>
</g>
<g>
</g>
<g>
</g>
<g>
</g>
<g>
</g>
<g>
</g>
<g>
</g>
<g>
</g>
<g>
</g>
<g>
</g>
<g>
</g>
<g>
</g>
<g>
</g>
</svg>
