<?xml version="1.0" encoding="iso-8859-1"?>
<!-- Generator: Adobe Illustrator 18.0.0, SVG Export Plug-In . SVG Version: 6.00 Build 0)  -->
<!DOCTYPE svg PUBLIC "-//W3C//DTD SVG 1.1//EN" "http://www.w3.org/Graphics/SVG/1.1/DTD/svg11.dtd">
<svg version="1.1" id="Capa_1" xmlns="http://www.w3.org/2000/svg" xmlns:xlink="http://www.w3.org/1999/xlink" x="0px" y="0px"
	 viewBox="0 0 444.042 444.042" style="enable-background:new 0 0 444.042 444.042;" xml:space="preserve">
<g>
	<path d="M422.955,166.553l-58.458-49.825V36.006c0-8.284-6.716-15-15-15h-66.01c-7.925,0-14.398,6.15-14.946,13.937L231.75,3.584
		c-5.606-4.779-13.854-4.779-19.46,0L21.086,166.553c-4.783,4.077-6.518,10.703-4.346,16.601c2.172,5.897,7.791,9.815,14.076,9.815
		H66.31v236.072c0,8.284,6.716,15,15,15h281.421c8.284,0,15-6.716,15-15V192.969h35.494c6.285,0,11.903-3.918,14.076-9.815
		S427.738,170.63,422.955,166.553z M298.488,51.006h36.01v40.152l-36.01-30.692V51.006z M222.02,34.709l150.482,128.26H71.539
		L222.02,34.709z M96.31,414.042V183.27h251.421v230.771H96.31z"/>
	<path d="M237.454,278.222c0,4.143,3.358,7.5,7.5,7.5s7.5-3.357,7.5-7.5c0-14.193-9.767-26.146-22.933-29.496v-4.063
		c0-4.143-3.358-7.5-7.5-7.5s-7.5,3.357-7.5,7.5v4.063c-13.166,3.349-22.934,15.302-22.934,29.496
		c0,14.193,9.768,26.146,22.934,29.496v29.848c-4.727-2.642-7.934-7.689-7.934-13.478c0-4.143-3.358-7.5-7.5-7.5s-7.5,3.357-7.5,7.5
		c0,14.193,9.768,26.146,22.934,29.496v4.063c0,4.143,3.358,7.5,7.5,7.5s7.5-3.357,7.5-7.5v-4.063
		c13.166-3.35,22.933-15.303,22.933-29.496c0-14.192-9.767-26.146-22.933-29.495v-29.848
		C234.247,267.386,237.454,272.434,237.454,278.222z M206.587,278.222c0-5.788,3.207-10.836,7.934-13.478V291.7
		C209.794,289.058,206.587,284.01,206.587,278.222z M237.454,324.088c0,5.788-3.207,10.836-7.933,13.477v-26.953
		C234.247,313.253,237.454,318.3,237.454,324.088z"/>
	<path d="M222.021,203.691c-53.742,0-97.464,43.723-97.464,97.465s43.722,97.464,97.464,97.464
		c53.742,0,97.464-43.722,97.464-97.464S275.763,203.691,222.021,203.691z M222.021,378.62c-42.714,0-77.464-34.75-77.464-77.464
		s34.75-77.465,77.464-77.465s77.464,34.751,77.464,77.465S264.735,378.62,222.021,378.62z"/>
</g>
<g>
</g>
<g>
</g>
<g>
</g>
<g>
</g>
<g>
</g>
<g>
</g>
<g>
</g>
<g>
</g>
<g>
</g>
<g>
</g>
<g>
</g>
<g>
</g>
<g>
</g>
<g>
</g>
<g>
</g>
</svg>
